:SAMPLES-PER-SECOND 30
:FULLY-SPECIFIED
:DEGREES
1
root  9.59359 40.8549 -1.12983 -178.568 -80.5317 175.044
RightUpLeg  0.57901 -8.35872 -5.3718
RightLeg  6.30692 -1.81652 3.40303
RightFoot  -2.3217 0.0889092 -1.4506
RightToes  5.82063e-011 0 -3.6325e-017
Spine  5.82153 1.01131 1.11026
Spine1  3.11733 1.65657 -2.24703
HEad  0.251901 -6.79958 1.30847
LeftShoulder1  1.2319 -2.63862 -12.9521
LeftArm  -22.0026 16.9399 -10.9077
LeftForeArm  12.1701 -2.25923 0.828376
LeftHand  -0.244104 0.0205437 5.32207
RightShoulder  0.980652 1.58405 12.2135
RightArm  -19.0327 -14.0827 6.00456
RightForeArm  2.72189 8.86401 3.20547
RightHand  -2.16798 6.52533 -21.2011
LeftUpLeg  2.24173 6.23202 3.7398
LeftLeg  4.08474 18.7776 -3.22905
LeftFoot  -3.08323 0.103341 -1.24458
LeftToes  1.45487e-011 -6.19069e-011 1.65092e-011
2
root  9.57663 40.8565 -1.12635 -178.594 -80.5351 175.069
RightUpLeg  0.624775 -8.349 -5.37087
RightLeg  6.26984 -1.81531 3.39586
RightFoot  -2.32098 0.0886615 -1.44675
RightToes  5.82063e-011 0 -3.6325e-017
Spine  5.80527 1.02119 1.10337
Spine1  3.13008 1.66496 -2.24671
HEad  0.221227 -6.82094 1.38337
LeftShoulder1  1.24382 -2.67663 -13.0291
LeftArm  -21.9881 16.9119 -10.8397
LeftForeArm  12.0906 -2.25506 0.820093
LeftHand  -0.244104 0.0205437 5.32207
RightShoulder  0.966812 1.52187 12.1722
RightArm  -18.9993 -14.0498 6.04446
RightForeArm  2.63816 8.83761 3.22053
RightHand  -2.1813 6.56165 -21.2643
LeftUpLeg  2.27681 6.22283 3.74183
LeftLeg  4.06189 18.7862 -3.24032
LeftFoot  -3.08251 0.101406 -1.2145
LeftToes  1.45487e-011 -6.19069e-011 1.65092e-011
3
root  9.54372 40.8593 -1.11964 -178.71 -80.5553 175.192
RightUpLeg  0.705675 -8.3213 -5.36467
RightLeg  6.20222 -1.85358 3.37661
RightFoot  -2.32671 0.0850946 -1.3913
RightToes  5.82063e-011 0 -3.6325e-017
Spine  5.729 1.0284 1.12827
Spine1  3.18933 1.6762 -2.27132
HEad  0.181043 -6.82907 1.42388
LeftShoulder1  1.2667 -2.75534 -13.1545
LeftArm  -21.9057 16.8608 -10.7012
LeftForeArm  11.9878 -2.26323 0.782378
LeftHand  -0.244104 0.0205437 5.32207
RightShoulder  0.945883 1.43059 12.0963
RightArm  -18.9588 -13.9998 6.11864
RightForeArm  2.45781 8.79157 3.24342
RightHand  -2.21618 6.6586 -21.4255
LeftUpLeg  2.33434 6.22129 3.75267
LeftLeg  4.02588 18.77 -3.26259
LeftFoot  -3.08939 0.0986648 -1.1719
LeftToes  1.45487e-011 -6.19069e-011 1.65092e-011
4
root  9.50908 40.8608 -1.11133 -178.832 -80.6018 175.347
RightUpLeg  0.751456 -8.28735 -5.34652
RightLeg  6.16554 -1.93713 3.3464
RightFoot  -2.36575 0.081617 -1.33724
RightToes  5.82063e-011 0 -3.6325e-017
Spine  5.61696 1.02272 1.17125
Spine1  3.25933 1.67656 -2.2975
HEad  0.192047 -6.8093 1.3328
LeftShoulder1  1.28738 -2.82931 -13.2552
LeftArm  -21.8055 16.8257 -10.5764
LeftForeArm  11.9607 -2.34628 0.72724
LeftHand  -0.244104 0.0205437 5.32207
RightShoulder  0.93312 1.38716 11.9958
RightArm  -18.9481 -13.9917 6.18585
RightForeArm  2.37454 8.72272 3.24641
RightHand  -2.24482 6.77367 -21.4958
LeftUpLeg  2.35069 6.22703 3.76289
LeftLeg  4.02832 18.7198 -3.26835
LeftFoot  -3.14033 0.0973322 -1.15118
LeftToes  1.45487e-011 -6.19069e-011 1.65092e-011
5
root  9.48026 40.8593 -1.10246 -178.945 -80.6613 175.493
RightUpLeg  0.765031 -8.25506 -5.32165
RightLeg  6.17196 -2.02268 3.30896
RightFoot  -2.42058 0.0817409 -1.33917
RightToes  5.82063e-011 0 -3.6325e-017
Spine  5.57306 1.02053 1.20356
Spine1  3.26644 1.67405 -2.30358
HEad  0.227248 -6.77989 1.24441
LeftShoulder1  1.30044 -2.8754 -13.3197
LeftArm  -21.7664 16.773 -10.5071
LeftForeArm  11.9397 -2.43784 0.692455
LeftHand  -0.244104 0.0205437 5.32207
RightShoulder  0.926378 1.37519 11.8945
RightArm  -18.9372 -14.0241 6.21611
RightForeArm  2.44862 8.64298 3.2329
RightHand  -2.24699 6.83556 -21.4115
LeftUpLeg  2.31947 6.242 3.76679
LeftLeg  4.11082 18.6439 -3.23445
LeftFoot  -3.24462 0.0990476 -1.17785
LeftToes  1.45487e-011 -6.19069e-011 1.65092e-011
6
root  9.45366 40.8564 -1.09242 -179.114 -80.7079 175.672
RightUpLeg  0.792891 -8.23545 -5.30044
RightLeg  6.18945 -2.08308 3.28063
RightFoot  -2.45518 0.0839853 -1.37406
RightToes  5.82063e-011 0 -3.6325e-017
Spine  5.61846 1.02866 1.23578
Spine1  3.21511 1.68576 -2.31554
HEad  0.172611 -6.7493 1.30008
LeftShoulder1  1.30688 -2.90058 -13.3428
LeftArm  -21.7842 16.6746 -10.4757
LeftForeArm  11.8846 -2.40238 0.698418
LeftHand  -0.244104 0.0205437 5.32207
RightShoulder  0.91509 1.32751 11.843
RightArm  -18.8859 -14.0447 6.20788
RightForeArm  2.51525 8.62072 3.23674
RightHand  -2.23438 6.81953 -21.3227
LeftUpLeg  2.29055 6.26914 3.7743
LeftLeg  4.23658 18.5675 -3.17421
LeftFoot  -3.36492 0.102525 -1.2319
LeftToes  1.45487e-011 -6.19069e-011 1.65092e-011
7
root  9.42185 40.855 -1.07867 -179.249 -80.7335 175.824
RightUpLeg  0.823571 -8.24728 -5.30889
RightLeg  6.20719 -2.11378 3.27829
RightFoot  -2.4856 0.0857848 -1.40203
RightToes  5.82063e-011 0 -3.6325e-017
Spine  5.63905 1.03761 1.28661
Spine1  3.17821 1.711 -2.38015
HEad  0.00283489 -6.74099 1.41821
LeftShoulder1  1.30201 -2.901 -13.2579
LeftArm  -21.8505 16.6051 -10.5199
LeftForeArm  11.9695 -2.2827 0.744299
LeftHand  -0.244104 0.0205437 5.32207
RightShoulder  0.901388 1.24517 11.8868
RightArm  -18.8196 -14.0439 6.15243
RightForeArm  2.47019 8.71044 3.26874
RightHand  -2.2103 6.71603 -21.2738
LeftUpLeg  2.28336 6.27449 3.76214
LeftLeg  4.31911 18.5422 -3.11884
LeftFoot  -3.45413 0.105015 -1.27061
LeftToes  1.45487e-011 -6.19069e-011 1.65092e-011
8
root  9.3833 40.8547 -1.05976 -179.161 -80.7454 175.792
RightUpLeg  0.818688 -8.29233 -5.36832
RightLeg  6.22772 -2.08755 3.29722
RightFoot  -2.5533 0.0853118 -1.39468
RightToes  5.82063e-011 0 -3.6325e-017
Spine  5.57238 1.03118 1.34123
Spine1  3.16564 1.73404 -2.51192
HEad  -0.130406 -6.79218 1.44644
LeftShoulder1  1.27848 -2.84931 -13.0318
LeftArm  -22.021 16.6798 -10.7038
LeftForeArm  12.2823 -2.2839 0.824922
LeftHand  -0.244104 0.0205437 5.32207
RightShoulder  0.900593 1.20583 12.0428
RightArm  -18.808 -14.065 6.00201
RightForeArm  2.4438 8.85951 3.29094
RightHand  -2.16189 6.53182 -21.1324
LeftUpLeg  2.26705 6.21826 3.68971
LeftLeg  4.34405 18.5937 -3.07034
LeftFoot  -3.53557 0.107166 -1.30404
LeftToes  1.45487e-011 -6.19069e-011 1.65092e-011
